<svg xmlns="http://www.w3.org/2000/svg" width="70" height="54">
    <defs>
        <mask id="attacker_pushback">
            <rect width="100%" height="100%" fill="white" />
            <ellipse rx="26" ry="21.75" cx="35" cy="27" fill="black"/>
        </mask>
            <marker id="arrow" viewBox="0 0 10 10" refX="10" refY="5"
        markerWidth="6" markerHeight="6"
        orient="auto-start-reverse">
      <path d="M 0 0 L 10 5 L 0 10 z" />
    </marker>
    </defs>
    <g stroke-width="0.4">
    <rect width="60" height="44" fill="white" stroke="black" x="5" y="5" />
    <ellipse rx="11" ry="6.75" cx="35" cy="27" fill="beige"/>
    <ellipse rx="11" ry="6.75" cx="35" cy="27" stroke="blue" stroke-dasharray="1" fill="none"/>
    <rect width="12" height="3" rx="2" x="29" y="25.5" fill="purple"/>
    <rect width="30" height="22" x="5" y="5" fill="red" mask="url(#attacker_pushback)"/>
    <rect width="30" height="22" x="35" y="27" fill="red" mask="url(#attacker_pushback)"/>
    <rect width="30" height="22" x="5" y="27" fill="darkred" mask="url(#attacker_pushback)"/>
    <rect width="30" height="22" x="35" y="5" fill="darkred" mask="url(#attacker_pushback)"/>
    <ellipse rx="26" ry="21.75" cx="35" cy="27" fill="none" stroke="red" stroke-dasharray="1" />
    </g>
    <g>
        <text text-anchor="middle" dominant-baseline="middle"
        x="35" y="27" fill="white" font-size="1.3">
            Webway Gate
        </text>
        <text text-anchor="middle" dominant-baseline="middle"
        x="35" y="30.5" fill="black" font-size="1.3">
            Wraithbone Platform
        </text>
        <text x="6" y="7" fill="white" font-size="1.3">
            Attacker 1
        </text>
        <text x="56" y="7" fill="white" font-size="1.3">
            Attacker 2
        </text>
        <text x="6" y="47.5" fill="white" font-size="1.3">
            Attacker 3
        </text>
        <text x="56" y="47.5" fill="white" font-size="1.3">
            Attacker 4
        </text>
        <line x1="46" x2="61" y1="27" y2="27" 
        stroke="black" stroke-width="0.2" marker-start="url(#arrow)" 
        marker-end="url(#arrow)"/>
        <line x1="35" x2="35" y1="5" y2="20" 
        stroke="black" stroke-width="0.2" marker-start="url(#arrow)" 
        marker-end="url(#arrow)"/>
        <text x="35.5" y="13" font-size="1.3">
            15"
        </text>
        <text x="52" y="29" font-size="1.3">
            15"
        </text>
    </g>
</svg>